<svg version="1.1" id="Layer_1" xmlns="http://www.w3.org/2000/svg" xmlns:xlink="http://www.w3.org/1999/xlink" x="0px" y="0px"
	 width="100%" viewBox="0 0 1024 1024" enable-background="new 0 0 1024 1024" xml:space="preserve">
<path fill="#000000" opacity="1.000000" stroke="none" 
	d="
M786.763367,423.528931 
	C783.705017,469.051514 770.721619,511.055328 746.038635,548.852295 
	C703.193481,614.461121 643.390686,655.745789 566.276489,671.501465 
	C543.263062,676.203552 519.993896,677.638550 496.730865,676.112061 
	C420.704102,671.123352 357.026642,640.161133 306.096161,583.366516 
	C272.099548,545.455566 250.515213,501.233948 241.985291,451.186615 
	C228.140549,369.955780 246.830109,296.380005 298.143738,231.884628 
	C339.512878,179.888321 394.035919,148.875885 458.977081,135.873550 
	C484.119415,130.839615 509.713196,129.670532 535.011108,132.030365 
	C629.877808,140.879715 703.046265,185.518829 752.366882,267.611633 
	C769.525513,296.171661 779.657959,327.352020 784.514404,360.352539 
	C787.585327,381.219696 787.830688,402.102173 786.763367,423.528931 
M547.940918,152.733246 
	C539.665405,151.949615 531.403442,150.719406 523.111755,150.467957 
	C500.258942,149.775009 477.532654,151.259064 455.194061,156.442780 
	C377.520386,174.467178 320.135986,218.965515 283.209808,289.501343 
	C268.083038,318.396301 259.616882,349.375732 257.123352,382.024750 
	C255.465881,403.726837 256.358429,425.196899 260.208038,446.591125 
	C262.438507,458.987091 266.275452,471.069122 266.321320,483.889069 
	C266.422180,512.064880 279.044769,533.649902 302.024902,549.450134 
	C304.533447,551.174866 306.664429,553.159851 308.574432,555.512146 
	C312.983887,560.942505 317.339569,566.435364 322.047882,571.601318 
	C368.060699,622.086731 425.113556,650.751526 493.165558,656.393250 
	C516.184082,658.301453 539.357971,657.322449 562.251831,652.713928 
	C639.344421,637.195068 697.054871,594.714172 736.707703,527.327759 
	C755.052185,496.153107 764.872803,462.187134 767.833313,426.138367 
	C770.027283,399.424255 768.828247,372.942810 763.122864,346.759918 
	C754.891296,308.984406 738.230103,275.202423 713.807495,245.285233 
	C670.973267,192.814163 615.677612,162.522644 547.940918,152.733246 
z"/>
<path fill="#000000" opacity="1.000000" stroke="none" 
	d="
M549.878174,714.155334 
	C572.212891,739.784729 569.894226,784.764954 543.312317,806.763306 
	C532.528259,815.687988 520.144470,820.700073 506.337372,821.168945 
	C489.209351,821.750732 472.047089,821.265869 454.901489,821.434021 
	C451.062439,821.471741 449.624359,820.262329 449.634277,816.304382 
	C449.733002,776.849731 449.730682,737.394592 449.618896,697.939941 
	C449.608185,694.154358 451.030884,692.998291 454.587860,693.055420 
	C472.552032,693.344360 490.560944,692.810852 508.471130,693.913879 
	C524.584290,694.906128 538.605530,701.691284 549.878174,714.155334 
M530.338135,776.776245 
	C534.654968,767.479004 534.533264,757.565674 533.397461,747.825012 
	C531.583252,732.266479 521.630371,722.181885 506.396637,719.106140 
	C498.799408,717.572144 491.125580,718.484070 483.488129,718.249878 
	C480.434326,718.156311 480.028778,720.262939 480.028320,722.606995 
	C480.023773,745.596802 480.055176,768.586609 480.004364,791.576294 
	C479.997101,794.857727 481.528259,795.987610 484.606506,795.900879 
	C489.767853,795.755310 494.944550,795.953674 500.094971,795.659729 
	C513.252747,794.908630 523.937012,789.933044 530.338135,776.776245 
z"/>
<path fill="#000000" opacity="1.000000" stroke="none" 
	d="
M636.147949,717.260986 
	C621.303589,720.307922 612.755981,729.601013 610.637451,746.343384 
	C609.346008,756.549805 609.353333,766.948059 613.263550,776.886963 
	C620.197083,794.510376 633.743774,800.503662 651.879883,799.140320 
	C656.521057,798.791443 661.083496,797.809753 665.409058,795.925110 
	C668.304504,794.663696 669.662292,792.735168 669.747253,789.400818 
	C670.105774,775.333069 670.195740,775.406921 656.059021,775.334534 
	C643.083984,775.268127 644.965942,776.967651 644.817932,764.314209 
	C644.662903,751.073914 644.748047,751.074219 657.776428,751.054138 
	C669.603088,751.035889 681.434631,751.206604 693.253967,750.901611 
	C698.114075,750.776184 699.532471,752.454529 699.443359,757.213501 
	C699.175354,771.534119 699.267700,785.863647 699.404053,800.187988 
	C699.435669,803.511780 698.358521,805.760315 695.716248,807.796875 
	C682.589539,817.914368 667.648560,822.757324 651.249390,823.343628 
	C641.428589,823.694824 631.600769,823.640869 622.084412,820.607788 
	C600.901367,813.856079 587.276733,799.733276 581.405396,778.325439 
	C576.021301,758.693909 577.513062,739.555969 587.982300,721.933899 
	C602.301270,697.831909 624.757141,689.591125 651.701965,691.164795 
	C662.345703,691.786377 672.406738,694.344421 681.216125,700.659973 
	C689.594543,706.666443 695.403748,714.521240 698.614075,724.405029 
	C699.758667,727.928772 699.251038,729.610596 695.478394,730.426331 
	C688.661133,731.900085 681.887756,733.596436 675.144348,735.382385 
	C672.579529,736.061584 670.999512,735.575867 670.165833,732.957947 
	C665.945801,719.705811 649.895569,714.703430 636.147949,717.260986 
z"/>
<path fill="#000000" opacity="1.000000" stroke="none" 
	d="
M399.942108,822.278381 
	C386.651947,825.425049 373.812286,825.416260 361.182922,821.242493 
	C346.668915,816.445923 337.311462,802.973450 337.595062,788.214783 
	C337.662140,784.725464 338.855957,783.534851 342.277771,783.625549 
	C348.931854,783.802002 355.597931,783.795288 362.251343,783.601562 
	C365.076050,783.519348 366.895416,784.360229 367.020874,787.231812 
	C367.454773,797.162537 378.451080,802.507263 389.173859,798.097534 
	C396.891449,794.923645 397.530579,787.771790 397.575897,780.897766 
	C397.753662,753.930176 397.639160,726.960815 397.673004,699.992065 
	C397.675446,698.046875 397.219360,696.009094 398.591827,693.621826 
	C407.114014,693.621826 415.893097,693.620605 424.672180,693.622559 
	C427.859100,693.623230 427.311157,696.036072 427.318878,697.918091 
	C427.365997,709.404541 427.347382,720.891296 427.348175,732.377991 
	C427.349396,749.857727 426.843933,767.355774 427.476776,784.812561 
	C428.263000,806.499756 415.758484,817.831665 399.942108,822.278381 
z"/>
<path fill="#000000" opacity="1.000000" stroke="none" 
	d="
M367.641846,869.002075 
	C367.644257,865.176758 367.516144,861.843201 367.700958,858.527100 
	C367.810791,856.556641 366.601898,853.696167 369.509521,852.980774 
	C372.559357,852.230408 375.796997,852.054138 377.983978,855.342285 
	C380.838104,859.633484 383.819366,863.840576 386.774597,868.063782 
	C387.593964,869.234680 388.090668,870.804504 390.335938,870.964783 
	C391.187561,866.581055 390.726074,862.137634 390.746460,857.744385 
	C390.760223,854.773560 390.986755,852.620911 394.908966,852.603577 
	C398.638824,852.587036 399.342957,854.343384 399.300598,857.516541 
	C399.187469,865.996887 399.318329,874.480286 399.220184,882.960938 
	C399.197357,884.933167 400.082001,887.704895 396.904022,888.176392 
	C394.138672,888.586548 391.286469,888.911133 389.337280,885.910461 
	C386.530731,881.589966 383.562317,877.372253 380.578247,873.170837 
	C379.551666,871.725525 378.805664,869.954834 376.356293,868.995544 
	C374.401031,873.999878 375.685730,879.136902 375.370697,884.091919 
	C375.221191,886.443787 375.099548,888.339111 371.948578,888.355713 
	C369.129791,888.370483 367.557587,887.637634 367.635406,884.468201 
	C367.757812,879.482178 367.652069,874.490540 367.641846,869.002075 
z"/>
<path fill="#000000" opacity="1.000000" stroke="none" 
	d="
M512.670349,870.188721 
	C513.248840,875.269592 514.938232,879.262756 519.806396,881.058105 
	C524.238892,882.692688 528.357056,880.709351 529.801941,876.246521 
	C528.443665,874.880005 526.676086,875.384033 525.083069,875.354004 
	C522.854492,875.312012 521.719177,874.506104 521.678345,872.125061 
	C521.638428,869.797180 522.224121,868.136658 524.850220,868.063293 
	C528.011536,867.974915 531.176758,867.931763 534.338623,867.980652 
	C540.180420,868.071045 541.087097,869.176270 540.146057,874.825500 
	C538.704407,883.479370 530.787781,889.744507 521.885498,889.276917 
	C512.416565,888.779419 504.953400,881.471375 504.674469,872.423462 
	C504.179901,856.381958 518.042480,846.970581 531.737000,854.095764 
	C533.188110,854.850708 534.634521,855.834473 535.705688,857.045837 
	C537.150085,858.679199 539.833496,860.662598 537.634460,862.897156 
	C535.644409,864.919189 532.715027,865.240601 529.912292,863.175781 
	C521.220825,856.772766 515.275879,859.119507 512.670349,870.188721 
z"/>
<path fill="#000000" opacity="1.000000" stroke="none" 
	d="
M643.796021,887.120789 
	C635.120178,890.644348 627.156616,889.238708 621.933594,883.505066 
	C616.903625,877.983276 615.719482,869.129150 619.059875,862.018188 
	C622.287476,855.147400 629.211670,851.157532 636.925659,851.723511 
	C643.735229,852.223145 648.682434,855.795837 651.002258,862.087219 
	C647.436401,864.856628 644.314331,865.102112 640.620911,861.688477 
	C636.954041,858.299561 632.485291,858.781189 628.901367,862.063721 
	C625.151306,865.498352 624.239441,871.750061 626.826904,876.286743 
	C629.283264,880.593750 633.500488,882.483643 637.707336,881.066528 
	C639.583252,880.434570 642.043335,879.825073 641.868896,877.435852 
	C641.691406,875.004517 639.165100,875.567993 637.436768,875.302490 
	C636.786011,875.202515 636.143677,875.047485 635.541077,874.926270 
	C633.913208,868.942261 634.559387,868.005493 640.420288,867.935364 
	C643.248901,867.901489 646.078979,868.016052 648.908386,868.015137 
	C652.502136,868.013977 653.497131,869.948303 653.018372,873.213257 
	C652.146240,879.160645 649.389893,883.845032 643.796021,887.120789 
z"/>
<path fill="#000000" opacity="1.000000" stroke="none" 
	d="
M825.068115,888.589111 
	C816.591064,890.490967 809.665405,888.456421 804.759644,881.733948 
	C800.006287,875.220337 799.963196,868.011108 803.793701,861.036682 
	C807.408691,854.454590 813.375366,851.468811 820.798523,851.754578 
	C830.027222,852.109863 837.098206,858.451599 838.378357,867.186401 
	C839.901306,877.577576 835.554565,884.742310 825.068115,888.589111 
M817.322876,881.237183 
	C824.463379,882.023987 829.686951,878.285400 830.560181,871.763062 
	C831.286987,866.334106 826.783386,860.431946 821.206665,859.505005 
	C815.968140,858.634155 810.782898,862.736694 809.569214,868.712402 
	C808.557678,873.692627 811.099548,878.097412 817.322876,881.237183 
z"/>
<path fill="#000000" opacity="1.000000" stroke="none" 
	d="
M328.937927,882.954468 
	C322.250824,873.446167 323.641571,861.503845 331.853973,855.491150 
	C340.360443,849.263245 351.735199,850.817993 358.139465,859.084106 
	C363.986938,866.631287 363.096313,878.164124 356.174011,884.536743 
	C348.675415,891.439819 337.290344,890.887878 328.937927,882.954468 
M341.105774,881.482605 
	C342.095703,881.519592 343.107117,881.706787 344.072083,881.568970 
	C349.885406,880.738403 353.825745,876.014648 353.657227,870.177795 
	C353.497345,864.640076 349.201416,859.958252 343.833344,859.471436 
	C338.916443,859.025452 334.333374,862.754700 332.876862,868.386719 
	C331.526550,873.608032 334.179291,878.154114 341.105774,881.482605 
z"/>
<path fill="#000000" opacity="1.000000" stroke="none" 
	d="
M596.319336,853.163208 
	C607.157349,855.307434 613.525452,862.611755 612.732910,871.613281 
	C611.811462,882.079285 604.706055,888.299744 593.593689,888.368835 
	C580.653259,888.449341 580.656067,888.449402 580.667542,875.654297 
	C580.673096,869.501465 580.764038,863.346313 580.623657,857.196655 
	C580.551819,854.047485 581.677490,852.540649 584.940002,852.713989 
	C588.587463,852.907654 592.243103,852.946777 596.319336,853.163208 
M591.334045,860.919434 
	C587.973816,864.076721 587.184448,876.253479 590.119995,879.405334 
	C591.112305,880.470764 592.365173,880.696777 593.736450,880.769348 
	C599.259399,881.061218 604.616943,876.043640 604.552368,870.598022 
	C604.481995,864.659546 598.980652,860.285339 591.334045,860.919434 
z"/>
<path fill="#000000" opacity="1.000000" stroke="none" 
	d="
M314.957764,876.461792 
	C317.110748,880.158630 319.127533,883.546204 321.381378,887.331970 
	C316.796631,889.054688 313.583374,888.936707 310.836121,884.743896 
	C308.864471,881.734802 307.700378,877.720581 303.447510,876.417664 
	C301.409973,879.127808 302.478088,882.051025 302.355072,884.739563 
	C302.221985,887.648804 300.797760,888.387207 298.230438,888.375488 
	C295.753723,888.364197 293.902618,887.796936 293.895447,884.891174 
	C293.871643,875.258728 293.889435,865.626282 293.865204,855.993835 
	C293.858459,853.316223 295.435028,852.644409 297.744324,852.670227 
	C301.729919,852.714661 305.725739,852.520935 309.699738,852.742249 
	C314.137604,852.989319 317.756958,854.875916 319.419739,859.282715 
	C321.104736,863.748230 320.852234,868.011719 317.718231,871.932068 
	C316.663177,873.251709 314.296509,873.740540 314.957764,876.461792 
M302.747528,861.266479 
	C302.540527,863.885071 300.713074,867.153259 304.425903,868.503113 
	C306.682770,869.323669 309.427094,869.201599 311.349243,867.026611 
	C312.405365,865.831543 312.811188,864.504822 312.056580,862.906494 
	C310.838501,860.326599 308.554199,860.082581 306.173889,860.114685 
	C305.208313,860.127686 304.247223,860.474426 302.747528,861.266479 
z"/>
<path fill="#000000" opacity="1.000000" stroke="none" 
	d="
M773.350037,878.504089 
	C773.324463,880.612793 773.253052,882.280518 773.316956,883.942993 
	C773.421509,886.664673 772.681763,888.358887 769.462769,888.394958 
	C766.335144,888.429993 764.835510,887.348633 764.861877,884.093750 
	C764.935974,874.934692 764.942261,865.774353 764.870056,856.615356 
	C764.845642,853.521057 766.332886,852.643005 769.196228,852.636841 
	C772.157593,852.630493 773.565002,853.714844 773.329163,856.741760 
	C773.251831,857.734436 773.327942,858.739136 773.335632,859.738342 
	C773.385193,866.189575 773.751221,866.566040 780.055664,866.652405 
	C787.590515,866.755554 787.645081,866.755493 787.625427,858.864990 
	C787.616699,855.356506 787.344482,851.962097 792.610535,852.642456 
	C794.583313,852.897278 795.527405,853.439636 795.653015,855.626099 
	C796.264587,866.267212 795.813477,876.877075 795.265869,887.420044 
	C788.517456,889.330811 787.712769,888.769043 787.650696,882.330017 
	C787.575134,874.491699 783.617188,871.799561 775.958984,874.274719 
	C774.004822,874.906250 773.481628,876.287720 773.350037,878.504089 
z"/>
<path fill="#000000" opacity="1.000000" stroke="none" 
	d="
M565.140015,856.890320 
	C568.779663,867.252136 572.292847,877.228271 575.898682,887.467651 
	C571.083557,888.969666 567.606567,889.158997 565.737000,884.051147 
	C564.217834,879.900330 560.406921,881.694641 557.488281,881.442078 
	C555.378540,881.259460 552.948669,881.044617 552.221985,883.921814 
	C550.809509,889.513855 546.973145,888.749817 542.716431,887.731201 
	C543.041626,882.966980 545.292969,879.008301 546.692749,874.812866 
	C548.689331,868.828918 550.924927,862.925171 553.003540,856.968018 
	C553.869141,854.487183 554.812378,852.478943 558.108398,852.603027 
	C561.228027,852.720398 564.223083,852.500183 565.140015,856.890320 
M557.795898,868.473267 
	C557.219177,870.493469 554.831482,872.746826 558.365601,874.282959 
	C559.640015,874.836853 561.562866,874.802185 561.440247,873.091003 
	C561.298828,871.117004 562.438599,867.671082 557.795898,868.473267 
z"/>
<path fill="#000000" opacity="1.000000" stroke="none" 
	d="
M438.857361,859.443359 
	C432.075714,860.833130 428.812195,864.037231 428.378113,869.351929 
	C427.971619,874.328369 430.622131,878.819763 434.878387,880.675781 
	C438.309174,882.171814 441.801788,881.848572 444.166016,879.339111 
	C447.690308,875.598022 450.490814,877.067078 453.621033,879.351990 
	C452.233856,884.664673 446.822479,888.638306 440.243439,889.257629 
	C432.490906,889.987366 424.447235,885.190613 421.372192,878.003967 
	C418.150024,870.473389 419.977112,861.668274 425.820892,856.565125 
	C432.151215,851.037170 441.827911,850.036560 448.553650,854.334167 
	C449.926544,855.211426 451.268707,856.347412 452.189209,857.667969 
	C453.303192,859.265991 455.656128,861.264160 452.837830,863.106628 
	C450.655823,864.533142 448.068848,866.671387 445.556763,863.092957 
	C444.077057,860.985168 441.803589,859.865784 438.857361,859.443359 
z"/>
<path fill="#000000" opacity="1.000000" stroke="none" 
	d="
M235.093628,874.687561 
	C239.715408,882.258301 244.443054,883.342651 250.729782,878.023926 
	C254.373688,874.941162 256.388489,878.161072 259.082611,879.047302 
	C257.716370,885.139526 250.202652,889.805176 243.203354,889.124146 
	C233.557419,888.185547 226.109634,880.330933 225.870071,870.844055 
	C225.637512,861.634521 232.608383,853.351501 241.860565,851.843567 
	C249.622437,850.578491 257.593353,855.052673 259.842194,862.196472 
	C256.475525,864.066895 253.507889,866.735229 249.787231,862.027527 
	C247.782211,859.490479 244.428696,858.960510 241.068970,860.290894 
	C237.287949,861.788086 235.188812,864.593323 234.482407,868.429993 
	C234.124420,870.374329 234.112732,872.421204 235.093628,874.687561 
z"/>
<path fill="#000000" opacity="1.000000" stroke="none" 
	d="
M737.502808,870.577881 
	C733.384338,867.259460 732.198242,863.417542 734.015686,858.791870 
	C735.783508,854.292480 740.194275,851.557983 745.574036,851.687378 
	C751.514465,851.830139 755.489441,854.818726 757.920410,860.383667 
	C754.748108,862.961182 751.952576,865.031616 748.747131,860.577209 
	C747.734558,859.170105 745.886597,858.894470 744.159912,859.513000 
	C742.974121,859.937866 742.175415,860.814575 742.283264,862.155701 
	C742.438110,864.080261 743.825012,864.991577 745.427490,865.659668 
	C747.882507,866.683105 750.419739,867.543640 752.781555,868.748901 
	C756.938843,870.870422 758.700317,874.446167 758.301270,879.053528 
	C757.904297,883.635864 755.552002,886.804321 751.205078,888.412598 
	C746.296387,890.228760 741.689270,889.402100 737.401001,886.621460 
	C734.788696,884.927490 732.402405,882.552063 733.021790,879.355774 
	C733.572510,876.514648 736.947632,876.935791 739.152405,876.038391 
	C740.792419,877.430786 741.130493,879.651245 742.950684,880.725708 
	C745.372070,882.155090 747.648926,881.848877 749.098083,879.627869 
	C750.592957,877.336853 748.682373,875.866760 746.863464,874.937439 
	C743.909912,873.428528 740.829712,872.167603 737.502808,870.577881 
z"/>
<path fill="#000000" opacity="1.000000" stroke="none" 
	d="
M474.075989,881.237915 
	C477.467865,878.943726 476.671936,876.958679 473.966431,875.372131 
	C472.264282,874.374146 470.333771,873.752747 468.479797,873.028870 
	C460.394806,869.872009 457.516266,864.549805 460.436066,858.102539 
	C463.076080,852.273071 471.310486,849.845276 477.703674,853.104797 
	C480.763550,854.664856 482.980225,857.015930 483.872467,860.675964 
	C480.664429,862.829163 477.779144,864.988647 474.732117,860.429749 
	C473.827667,859.076599 472.092377,858.386353 470.269348,859.208435 
	C469.130981,859.721741 468.312897,860.533813 468.287231,861.836243 
	C468.247955,863.830627 469.677856,864.769958 471.230042,865.462952 
	C473.655518,866.545898 476.158417,867.455444 478.584534,868.536987 
	C483.107208,870.553223 484.924591,874.291321 484.647644,879.007935 
	C484.377960,883.601074 481.801178,886.666138 477.549042,888.373230 
	C471.688934,890.726074 463.871979,888.598877 460.645721,883.497803 
	C459.638062,881.904602 457.290558,879.685913 460.303467,878.059814 
	C462.506439,876.870789 465.335876,874.602600 467.480347,878.620911 
	C468.791901,881.078491 470.924652,882.149658 474.075989,881.237915 
z"/>
<path fill="#000000" opacity="1.000000" stroke="none" 
	d="
M858.289246,876.281006 
	C853.648010,875.810547 852.048340,877.503418 852.234314,881.949158 
	C852.520081,888.783142 852.109436,888.902893 844.769775,887.775818 
	C843.506897,877.197998 844.211182,866.463013 844.188843,855.754883 
	C844.184021,853.455750 845.654785,852.646179 847.812805,852.680420 
	C850.632324,852.725037 853.453552,852.645752 856.273621,852.669739 
	C864.687927,852.741150 869.669250,856.416138 870.296570,862.982544 
	C870.984009,870.178650 867.410156,874.262512 858.289246,876.281006 
M856.606262,868.643066 
	C859.736389,868.728088 861.729248,867.480530 861.641724,864.088013 
	C861.573792,861.456055 859.921021,860.251465 857.458374,860.254395 
	C855.604614,860.256531 853.101624,859.517517 852.548523,862.217224 
	C851.977417,865.005005 851.792114,867.996948 856.606262,868.643066 
z"/>
<path fill="#000000" opacity="1.000000" stroke="none" 
	d="
M163.579575,866.785034 
	C166.488617,867.921509 166.115997,870.062622 165.624725,871.947449 
	C165.035370,874.208618 162.960541,873.347168 161.408401,873.438843 
	C159.918274,873.526855 158.410355,873.425293 156.933563,873.601868 
	C154.604736,873.880432 154.121292,875.557373 154.145676,877.586060 
	C154.170319,879.635437 155.147583,880.645081 157.193359,880.653809 
	C159.353043,880.663025 161.513855,880.744141 163.671997,880.696350 
	C166.295761,880.638245 168.189178,881.133789 168.232269,884.431335 
	C168.273361,887.577820 166.768860,888.452942 163.946655,888.392395 
	C159.296738,888.292419 154.641922,888.293396 149.991699,888.383057 
	C147.166458,888.437500 145.655823,887.490540 145.682755,884.399780 
	C145.763763,875.096497 145.734055,865.792053 145.699356,856.488220 
	C145.690567,854.133179 146.423279,852.675903 149.082657,852.700684 
	C154.232239,852.748779 159.383118,852.742310 164.532593,852.683411 
	C167.107925,852.653992 168.088654,853.927185 168.056625,856.368896 
	C168.025253,858.760498 167.066818,860.150024 164.519348,860.145508 
	C162.193863,860.141357 159.868317,860.190552 157.542786,860.190247 
	C155.326584,860.189941 154.163635,861.153625 154.171936,863.489990 
	C154.180527,865.908875 155.520432,866.652771 157.669052,866.641846 
	C159.495895,866.632568 161.323105,866.695679 163.579575,866.785034 
z"/>
<path fill="#000000" opacity="1.000000" stroke="none" 
	d="
M681.119263,883.162231 
	C681.635681,886.989502 680.342590,888.536682 676.767395,888.389893 
	C672.112305,888.198853 667.441284,888.254211 662.781372,888.372070 
	C659.761658,888.448364 658.642578,887.123596 658.668091,884.187866 
	C658.747437,875.029297 658.762512,865.868774 658.653748,856.710754 
	C658.617676,853.669861 659.872070,852.563721 662.819153,852.642883 
	C667.478699,852.768066 672.144043,852.689941 676.806885,852.669800 
	C679.161133,852.659607 681.153076,852.913330 681.118469,856.061401 
	C681.084839,859.117859 679.457336,860.161804 676.685181,860.119263 
	C675.020508,860.093689 673.354858,860.132019 671.689636,860.143799 
	C669.442810,860.159607 667.252747,860.141052 667.157776,863.340759 
	C667.062195,866.564758 669.142456,866.687439 671.471130,866.655762 
	C672.968933,866.635376 674.467834,866.712280 675.966309,866.718567 
	C678.366882,866.728577 679.085449,868.147156 679.096375,870.285828 
	C679.107788,872.525574 678.113708,873.754761 675.826904,873.725586 
	C674.498291,873.708618 673.171875,873.554443 671.843567,873.477722 
	C669.366150,873.334656 667.123047,873.334412 667.060913,876.849243 
	C667.004272,880.057007 668.719299,880.527771 671.437744,880.813110 
	C674.664978,881.151917 678.485413,878.999512 681.119263,883.162231 
z"/>
<path fill="#000000" opacity="1.000000" stroke="none" 
	d="
M219.612091,873.059204 
	C216.513489,873.547119 213.706406,873.688416 210.914078,873.974060 
	C209.157135,874.153748 208.370178,875.256226 208.360291,877.053894 
	C208.349411,879.035645 209.185287,880.327087 211.156799,880.500916 
	C213.470963,880.705078 215.810791,880.758118 218.133713,880.687378 
	C220.991043,880.600342 222.406998,881.570251 222.359497,884.707275 
	C222.315186,887.632568 220.919220,888.441467 218.340317,888.401001 
	C213.682480,888.328003 209.021957,888.279358 204.364868,888.357300 
	C201.526062,888.404724 200.614319,887.049255 200.635880,884.385681 
	C200.711304,875.068542 200.702728,865.750244 200.654160,856.432800 
	C200.641541,854.013306 201.460587,852.671082 204.078690,852.697693 
	C208.903061,852.746826 213.728760,852.730042 218.553238,852.678467 
	C221.021851,852.651978 222.221329,853.674072 222.194839,856.244995 
	C222.170013,858.654663 221.248718,860.046265 218.724426,860.108215 
	C216.230057,860.169373 213.735519,860.225220 211.241425,860.296387 
	C209.149445,860.356018 208.351959,861.520630 208.353775,863.527100 
	C208.355637,865.586487 209.251389,866.630127 211.336990,866.618225 
	C212.501495,866.611572 213.679535,866.760620 214.828461,866.632690 
	C219.697449,866.090637 221.201584,868.256531 219.612091,873.059204 
z"/>
<path fill="#000000" opacity="1.000000" stroke="none" 
	d="
M261.125946,857.730469 
	C260.763062,853.930603 262.181091,852.510376 265.681183,852.613220 
	C271.996887,852.798828 278.321960,852.669067 284.643097,852.664429 
	C287.053009,852.662720 289.323792,852.544312 289.381714,856.103516 
	C289.434723,859.360229 287.686127,860.280457 285.027039,860.031860 
	C280.180634,859.578735 279.087250,862.006775 279.279694,866.319458 
	C279.546356,872.295715 279.245361,878.294983 279.361694,884.281006 
	C279.419952,887.279175 278.238495,888.397217 275.242554,888.387024 
	C272.309357,888.377075 270.931763,887.323792 270.950897,884.334778 
	C270.990265,878.180481 270.718109,872.016602 270.979431,865.873901 
	C271.160431,861.619263 269.819855,859.572693 265.348633,860.026794 
	C263.719543,860.192200 261.930847,860.199158 261.125946,857.730469 
z"/>
<path fill="#000000" opacity="1.000000" stroke="none" 
	d="
M709.825684,859.931274 
	C705.626770,859.707275 704.051697,861.261719 704.216187,865.224731 
	C704.477905,871.530701 704.201294,877.857178 704.280090,884.173401 
	C704.316162,887.064148 703.282898,888.390991 700.215088,888.395264 
	C697.169006,888.399475 695.566528,887.573730 695.642090,884.185486 
	C695.783020,877.871521 695.536865,871.548462 695.700867,865.235657 
	C695.793823,861.657349 694.498413,859.939819 690.818542,860.089966 
	C687.939209,860.207520 685.480347,859.811462 685.681274,855.864075 
	C685.888489,851.794312 688.839111,852.732056 691.122803,852.693481 
	C697.272217,852.589600 703.424500,852.650208 709.575684,852.666809 
	C711.594788,852.672241 713.733582,852.550232 714.052124,855.382996 
	C714.370911,858.217590 713.294800,859.886841 709.825684,859.931274 
z"/>
<path fill="#000000" opacity="1.000000" stroke="none" 
	d="
M183.092545,865.012085 
	C183.087769,868.827332 183.226883,872.156372 183.041824,875.467346 
	C182.825882,879.330688 184.406479,881.033508 188.294067,880.664673 
	C189.607300,880.540222 190.947495,880.722778 192.275482,880.726685 
	C195.128662,880.735107 195.293839,882.652283 195.310913,884.810303 
	C195.328064,886.976501 194.620880,888.334839 192.213791,888.328064 
	C187.730698,888.315491 183.245178,888.253357 178.765137,888.375366 
	C175.751572,888.457520 174.641205,887.117676 174.666595,884.195740 
	C174.745972,875.063599 174.759354,865.929626 174.659088,856.797913 
	C174.626678,853.846680 175.708115,852.667603 178.725311,852.624390 
	C181.982025,852.577942 183.262177,853.878235 183.106522,857.046753 
	C182.984467,859.531372 183.089142,862.027039 183.092545,865.012085 
z"/>
<path fill="#000000" opacity="1.000000" stroke="none" 
	d="
M414.300842,863.032532 
	C414.295319,870.325745 414.248444,877.125427 414.305267,883.924255 
	C414.327515,886.587891 413.775574,888.391602 410.534271,888.426331 
	C407.433960,888.459595 405.915680,887.339722 405.927979,884.119873 
	C405.962769,874.999207 405.943512,865.877686 405.848572,856.757568 
	C405.817719,853.796265 407.053833,852.624817 410.017273,852.641602 
	C412.824646,852.657532 414.480621,853.426392 414.307098,856.569763 
	C414.197571,858.553528 414.295868,860.548645 414.300842,863.032532 
z"/>
<path fill="#000000" opacity="1.000000" stroke="none" 
	d="
M382.316040,216.061462 
	C374.314423,218.591949 372.682800,224.963760 372.457520,231.629074 
	C371.753693,252.452347 373.198273,273.263092 373.231689,294.085602 
	C373.236877,297.311157 375.013306,297.960083 377.606964,298.183105 
	C386.704376,298.965332 395.843567,298.801147 404.909698,300.490784 
	C448.811523,308.672638 477.969666,337.046173 487.329773,380.916809 
	C488.831482,387.955292 489.482086,395.055573 489.612976,402.205902 
	C489.695618,406.721222 489.321167,411.235138 485.850525,414.765717 
	C484.744415,415.890961 484.251221,417.221619 484.601074,418.866913 
	C487.386261,431.965179 485.622131,444.694580 481.119415,457.099823 
	C479.425659,461.766144 479.724060,465.655792 482.001892,470.286133 
	C488.391479,483.274689 487.268616,496.942627 482.979858,510.202850 
	C473.577118,539.274719 454.789581,559.249207 424.857727,567.613098 
	C418.640839,569.350220 415.750977,573.657532 414.585266,579.226318 
	C413.388275,584.944702 415.767944,589.680786 420.585999,593.035889 
	C425.466187,596.434326 430.985291,598.452637 436.808258,599.094543 
	C448.768372,600.413025 460.715637,600.830505 472.231079,596.152344 
	C480.212891,592.909668 485.662048,587.671265 486.810181,578.734802 
	C487.020935,577.094482 487.560486,575.498901 487.894104,573.871521 
	C492.350739,552.130493 508.085846,545.098938 523.940613,543.842041 
	C524.936157,543.763062 525.939026,543.771362 526.938660,543.750977 
	C535.384216,543.578430 535.384155,543.579224 537.842407,535.347717 
	C539.179871,530.869446 543.116516,527.820374 548.443665,527.757874 
	C560.107971,527.620972 571.775024,527.722229 583.440979,527.725098 
	C586.392944,527.725830 588.826660,528.616272 589.263855,531.917114 
	C589.625366,534.646484 591.433167,534.973694 593.552002,534.992310 
	C598.050842,535.031860 602.551270,534.966309 607.048523,535.064209 
	C610.599121,535.141541 612.508972,536.704651 612.395386,540.640869 
	C612.198425,547.468079 612.289429,554.305786 612.366211,561.137878 
	C612.406067,564.679077 610.831787,566.385742 607.277161,566.364685 
	C602.777710,566.337952 598.277466,566.427612 593.778259,566.388245 
	C591.359619,566.367065 589.627563,566.833618 589.253479,569.761536 
	C588.842773,572.976318 586.358887,574.103516 583.455383,574.123108 
	C572.624023,574.196289 561.778809,574.500732 550.964294,574.072937 
	C541.835205,573.711853 537.684509,569.441895 536.971985,560.420044 
	C536.707825,557.075500 535.403992,556.069092 532.335388,556.230835 
	C529.176086,556.397278 525.999146,556.223083 522.838989,556.380249 
	C510.310547,557.003174 502.768066,563.406555 500.143158,575.546448 
	C494.997528,599.344238 482.044586,610.534790 457.325531,612.219055 
	C444.050293,613.123596 431.007904,611.998169 418.868805,605.908630 
	C404.714020,598.807861 396.902771,584.104187 406.430084,567.543335 
	C407.614136,565.485168 408.412231,563.577209 406.228180,561.776794 
	C392.718109,550.639954 391.520599,535.839478 394.777069,520.335388 
	C399.320374,498.704773 410.099213,480.365509 426.547424,465.513367 
	C433.473206,459.259583 441.522461,454.924622 450.774445,453.302979 
	C454.347198,452.676758 455.845306,451.117615 456.088531,447.500610 
	C456.701935,438.378448 457.818115,429.289612 457.689697,420.122345 
	C457.664276,418.306061 457.252930,416.884064 455.242828,416.308228 
	C443.586243,412.968811 440.933533,403.592102 439.643890,393.185608 
	C437.670868,377.265167 431.743622,363.040039 421.265411,350.751404 
	C408.648346,335.954315 393.010864,332.619446 374.803741,337.845612 
	C351.891113,344.422455 337.239380,359.710205 328.402283,381.241852 
	C326.887299,384.933167 325.483856,388.697662 324.407959,392.534668 
	C323.159119,396.988556 320.937195,400.445984 316.489868,402.130707 
	C314.103088,403.034882 313.270233,404.752655 313.320068,407.193665 
	C313.415375,411.857971 313.108093,416.551575 313.537872,421.180115 
	C313.798096,423.982544 313.100494,425.786072 311.167480,427.760498 
	C296.205719,443.042358 291.880127,461.685760 294.050476,482.408234 
	C295.863129,499.715363 301.628387,515.405823 312.535614,529.066223 
	C316.133606,533.572388 320.212555,537.574402 325.556549,540.139038 
	C311.570923,525.293396 304.225952,507.442963 301.111237,487.615051 
	C298.289673,469.653717 299.961945,452.369415 309.540100,436.533173 
	C317.871918,422.757599 329.531372,418.907074 344.632874,424.541656 
	C348.344940,425.926697 351.912659,427.698700 355.517639,429.279999 
	C357.334442,427.670166 356.613373,425.706879 356.615356,423.991516 
	C356.639313,403.164459 356.935089,382.331451 356.012695,361.517395 
	C355.830536,357.406769 357.036438,355.036621 361.116882,353.731506 
	C364.863831,352.533020 368.365662,350.568054 371.980286,348.938629 
	C374.007263,350.911652 373.250610,353.202515 373.232910,355.221130 
	C372.985840,383.378265 372.720276,411.535645 372.281006,439.690216 
	C372.208282,444.351227 372.682190,448.727478 375.625336,452.392609 
	C379.043182,456.648987 378.096588,460.435028 375.452423,464.649719 
	C367.982971,476.555969 361.903961,489.118286 358.900269,502.961578 
	C356.157410,515.602661 356.402618,528.151184 361.595764,540.140320 
	C363.442108,544.402893 362.148865,546.057129 358.444061,547.673828 
	C339.675964,555.863586 321.968628,553.013428 305.201935,542.389038 
	C278.071167,525.197266 266.491516,490.309235 277.703674,460.459625 
	C279.602386,455.404785 282.177887,450.712555 286.030853,446.958710 
	C288.347931,444.701294 289.092529,442.298187 288.558472,439.344482 
	C286.566376,428.327118 288.072723,417.435577 289.966431,406.617645 
	C290.663300,402.636749 291.438202,399.034668 289.279724,395.193237 
	C287.943420,392.815002 288.774689,389.999481 289.499420,387.384888 
	C297.229614,359.496429 312.675293,337.249268 338.268860,323.168182 
	C362.487946,309.843353 394.748413,314.085022 416.410095,332.339905 
	C435.677795,348.577362 446.458008,369.267670 449.363007,394.200409 
	C449.611877,396.336395 449.934601,398.531189 450.684479,400.525116 
	C451.734222,403.316132 453.186157,405.980347 457.195190,406.200806 
	C458.635681,398.509979 457.166351,391.157990 455.577087,383.971497 
	C448.988098,354.176544 433.431091,330.655731 406.143951,315.951416 
	C392.637451,308.673126 377.934143,306.272949 362.637695,307.203644 
	C356.030426,307.605652 355.861450,307.318542 355.842133,300.777252 
	C355.772827,277.278839 356.266052,253.762268 355.490540,230.287460 
	C354.817780,209.924805 368.797028,197.203995 387.822632,197.010651 
	C422.983795,196.653320 458.156158,196.390045 493.311859,196.906082 
	C512.364868,197.185745 523.639343,211.873627 523.545349,227.899017 
	C523.102417,303.392395 523.350464,378.889771 523.343933,454.385742 
	C523.342468,472.078644 512.950134,485.305939 495.973694,489.742584 
	C492.031830,490.772766 490.312805,489.707855 489.908295,485.841064 
	C489.580353,482.705963 489.784027,479.531982 488.870789,476.432495 
	C488.225769,474.243317 489.617615,473.233307 491.586792,472.440979 
	C498.149719,469.800140 500.657349,464.500824 500.658234,457.760895 
	C500.668243,381.931610 500.680359,306.102325 500.650970,230.273056 
	C500.647064,220.195114 495.652069,215.147659 485.616150,215.150085 
	C452.951996,215.157990 420.287811,215.258636 387.623779,215.361572 
	C385.980133,215.366745 384.337585,215.728226 382.316040,216.061462 
M459.494904,486.876343 
	C462.873810,485.131409 466.252716,483.386475 469.631622,481.641541 
	C469.363159,481.206207 469.094696,480.770905 468.826233,480.335571 
	C453.065430,480.774811 443.698212,491.319458 435.449890,503.143738 
	C426.889343,515.415527 420.516815,534.239075 426.038544,541.563538 
	C429.669495,519.041382 440.276398,500.740631 459.494904,486.876343 
M336.653198,468.757843 
	C338.014343,464.434265 340.648560,464.736420 343.433441,467.153687 
	C347.322632,470.529510 349.151825,475.256775 351.118317,479.855560 
	C352.072662,482.087372 352.203247,484.724335 354.282837,486.520538 
	C355.711121,484.805603 355.176544,483.012146 354.872833,481.235565 
	C353.685669,474.292114 350.229706,468.469696 345.863922,463.116791 
	C343.833099,460.626770 341.536285,458.068481 338.003418,458.681000 
	C334.090179,459.359467 332.229889,462.587708 331.451080,466.123718 
	C328.564911,479.227600 330.301605,491.580872 338.125824,502.748260 
	C339.224060,504.315674 340.526245,505.900513 343.461578,506.204926 
	C337.395416,494.432220 333.761108,482.542755 336.653198,468.757843 
M601.748901,544.743042 
	C590.194458,542.869812 588.072998,544.515808 589.327148,554.272522 
	C589.534119,555.882690 589.903870,557.036438 591.707825,557.545654 
	C600.049561,559.900452 603.433533,557.308350 603.007080,548.704651 
	C602.950867,547.571228 602.596069,546.452576 601.748901,544.743042 
z"/>
<path fill="#000000" opacity="1.000000" stroke="none" 
	d="
M510.001709,505.170624 
	C505.002625,505.207214 500.503235,505.255798 496.003754,505.264221 
	C493.939880,505.268097 491.930176,505.244141 491.739410,502.335754 
	C491.567413,499.713409 492.985138,499.048126 495.242889,498.509338 
	C511.130371,494.718109 522.927246,485.977264 529.186768,470.418854 
	C532.221619,462.875458 531.623413,455.061218 531.675476,447.262085 
	C531.695374,444.283783 531.678650,441.305206 531.678650,438.786957 
	C533.251404,437.261200 534.638794,437.623383 535.938110,437.623871 
	C592.600281,437.645538 649.262634,437.746582 705.924316,437.590729 
	C711.286255,437.575989 714.847412,438.911285 717.986267,443.462219 
	C725.361206,454.154877 733.336975,464.431580 740.991394,474.933594 
	C744.844421,480.220001 744.343079,495.060913 740.253601,500.145538 
	C737.464905,503.612885 733.606689,504.176697 729.463013,504.180084 
	C691.965759,504.210815 654.468445,504.337891 616.971191,504.331024 
	C581.478577,504.324524 545.987000,504.334686 510.001709,505.170624 
M583.500671,465.371307 
	C579.015564,465.370789 574.530396,465.368591 570.045288,465.370056 
	C562.650391,465.372437 560.774109,467.025604 559.107544,475.027405 
	C560.323181,476.231140 561.893677,475.857056 563.332581,475.860260 
	C579.943726,475.897156 596.554871,475.903931 613.166077,475.889709 
	C614.653564,475.888428 616.170654,475.830139 617.620300,475.534821 
	C619.147766,475.223602 619.710144,474.196411 619.328308,472.548859 
	C618.439453,468.714233 614.489929,465.416840 610.414368,465.397125 
	C601.776550,465.355316 593.138367,465.376923 583.500671,465.371307 
z"/>
<path fill="#000000" opacity="1.000000" stroke="none" 
	d="
M587.000122,272.313202 
	C570.347656,272.603210 554.176697,271.725800 538.042419,272.969055 
	C533.501343,273.319000 531.474121,272.086182 531.550659,266.982269 
	C531.750854,253.631668 531.526489,253.639893 545.019531,253.641846 
	C596.335693,253.649292 647.651855,253.644775 698.968018,253.654114 
	C709.046936,253.655960 714.156250,258.852905 714.372009,268.969391 
	C715.395447,316.941589 715.054321,364.921936 715.290466,412.898743 
	C715.346008,424.186890 710.237061,429.313385 698.819580,429.318207 
	C645.837341,429.340576 592.855103,429.327545 539.872864,429.303741 
	C531.697083,429.300079 531.626953,429.215485 531.687866,420.846130 
	C531.764709,410.280457 530.605042,411.662720 541.127930,411.658081 
	C590.611328,411.636200 640.094788,411.676392 689.578186,411.683685 
	C696.682800,411.684753 696.689514,411.657745 696.700073,404.484619 
	C696.762024,362.498840 696.740173,320.512634 696.984863,278.527924 
	C697.014465,273.449524 695.491943,271.969452 690.464417,272.006836 
	C656.144165,272.261993 621.821777,272.242554 587.000122,272.313202 
z"/>
<path fill="#000000" opacity="1.000000" stroke="none" 
	d="
M389.954468,506.851379 
	C385.709442,521.185974 384.255615,535.206238 388.847504,549.373047 
	C390.199219,553.543335 392.225128,557.315613 395.095062,560.643066 
	C396.019501,561.714844 397.416351,562.598328 397.101410,564.374817 
	C384.770935,564.598389 372.294342,555.182068 366.808868,541.406311 
	C361.118378,527.115784 362.411530,512.671448 366.704437,498.409607 
	C373.927307,474.414001 386.930054,454.332733 408.075012,440.230164 
	C419.326294,432.726105 431.963654,430.427551 445.282898,431.836761 
	C451.269104,432.470154 451.474915,433.680389 451.011108,439.630951 
	C450.561188,445.402924 447.989746,447.581177 442.533630,448.977081 
	C428.093903,452.671478 417.167633,461.987305 407.988922,473.259033 
	C399.948090,483.133362 394.057953,494.326935 389.954468,506.851379 
z"/>
<path fill="#000000" opacity="1.000000" stroke="none" 
	d="
M428.125122,230.350494 
	C424.492279,230.565613 421.339722,230.977264 418.192963,230.936905 
	C414.724884,230.892426 409.916260,232.002792 409.719025,226.649307 
	C409.537018,221.709274 414.135254,221.986298 417.506104,221.842392 
	C423.487823,221.587036 429.485229,221.714355 435.475525,221.640945 
	C440.624603,221.577820 445.763550,221.746582 450.914062,221.018417 
	C454.062195,220.573334 457.820618,220.819611 458.111633,225.123734 
	C458.399750,229.384567 454.870941,230.140610 451.571960,230.210541 
	C443.919800,230.372726 436.262939,230.315842 428.125122,230.350494 
z"/>
</svg>